# xmcd
#
# Track frame offsets:
#	150
#	16765
#	36842
#	56242
#	74667
#	87442
#	111250
#	132305
#	153232
#	167020
#	183020
#	202352
#	221505
#	237085
#	250345
#
# Disc length: 3647 seconds
#
# Revision: 0
# Processed by: cddbd v1.5.1PL0 Copyright (c) Steve Scherf et al.
# Submitted via: dBpowerAMP V4.0
#
DISCID=d70e3d0f
DTITLE=Jeff Pitchell - Heavy Hitter
DYEAR=1900
DGENRE=
TTITLE0=One Day Away
TTITLE1=When it All Comes Down
TTITLE2=Unsung Hero of the Blues
TTITLE3=Fat Cigars
TTITLE4=Turn the Tables on You
TTITLE5=Whiskey River
TTITLE6=Ain't Nobody's Business
TTITLE7=Out in the Cold
TTITLE8=Pitch Pitch Boogie
TTITLE9=Eye for an Eye
TTITLE10=Prisoner of Love
TTITLE11=Heavy Hitter
TTITLE12=Hard Honey
TTITLE13=My Babe
TTITLE14=Magic Eyes
EXTD=
EXTT0=
EXTT1=
EXTT2=
EXTT3=
EXTT4=
EXTT5=
EXTT6=
EXTT7=
EXTT8=
EXTT9=
EXTT10=
EXTT11=
EXTT12=
EXTT13=
EXTT14=
PLAYORDER=
